<?xml version="1.0" encoding="UTF-8"?>
<svg version="1.1" xmlns="http://www.w3.org/2000/svg" width="100" height="101">
<path d="M0 0 C0.71353638 0.00202423 1.42707275 0.00404846 2.16223145 0.00613403 C2.89091431 0.00517731 3.61959717 0.00422058 4.37036133 0.00323486 C5.91377855 0.00255318 7.45719861 0.00440666 9.00061035 0.00857544 C11.37095544 0.01392391 13.74111104 0.00863011 16.1114502 0.00222778 C17.60754437 0.00288857 19.10363842 0.00416973 20.59973145 0.00613403 C21.31326782 0.0041098 22.0268042 0.00208557 22.76196289 0 C27.76602953 0.02399462 27.76602953 0.02399462 28.88098145 1.13894653 C28.96941938 3.5872508 28.99626896 6.00715252 28.9786377 8.45535278 C28.97722275 9.18640732 28.9758078 9.91746185 28.97434998 10.67066956 C28.96873553 13.01430286 28.95618066 15.35784193 28.94348145 17.70144653 C28.9384683 19.28673162 28.93390507 20.87201819 28.92980957 22.45730591 C28.91876141 26.35122263 28.90148716 30.24506859 28.88098145 34.13894653 C29.481604 34.13370972 30.08222656 34.1284729 30.7010498 34.12307739 C33.40684982 34.1023664 36.11263321 34.08930528 38.81848145 34.07644653 C39.76400879 34.06806763 40.70953613 34.05968872 41.68371582 34.05105591 C43.03239746 34.04622192 43.03239746 34.04622192 44.4083252 34.04129028 C45.65730591 34.03343506 45.65730591 34.03343506 46.93151855 34.02542114 C48.88098145 34.13894653 48.88098145 34.13894653 49.88098145 35.13894653 C49.97978941 36.61547317 50.0117739 38.09661889 50.01379395 39.57644653 C50.01508301 40.47105591 50.01637207 41.36566528 50.0177002 42.28738403 C50.01383301 43.22839966 50.00996582 44.16941528 50.00598145 45.13894653 C50.00984863 46.07996216 50.01371582 47.02097778 50.0177002 47.99050903 C50.01641113 48.88511841 50.01512207 49.77972778 50.01379395 50.70144653 C50.01266602 51.5277356 50.01153809 52.35402466 50.01037598 53.20535278 C49.88098145 55.13894653 49.88098145 55.13894653 48.88098145 56.13894653 C46.88139781 56.17975436 44.88052891 56.1814901 42.88098145 56.13894653 C42.90160645 57.10832153 42.92223145 58.07769653 42.94348145 59.07644653 C42.88098145 62.13894653 42.88098145 62.13894653 41.88098145 63.13894653 C39.88139781 63.17975436 37.88052891 63.1814901 35.88098145 63.13894653 C35.90160645 64.10832153 35.92223145 65.07769653 35.94348145 66.07644653 C35.88098145 69.13894653 35.88098145 69.13894653 34.88098145 70.13894653 C32.88139781 70.17975436 30.88052891 70.1814901 28.88098145 70.13894653 C28.88098145 72.11894653 28.88098145 74.09894653 28.88098145 76.13894653 C25.91098145 76.63394653 25.91098145 76.63394653 22.88098145 77.13894653 C22.90160645 77.94332153 22.92223145 78.74769653 22.94348145 79.57644653 C22.88098145 82.13894653 22.88098145 82.13894653 21.88098145 83.13894653 C19.88139781 83.17975436 17.88052891 83.1814901 15.88098145 83.13894653 C15.90160645 84.10832153 15.92223145 85.07769653 15.94348145 86.07644653 C15.88098145 89.13894653 15.88098145 89.13894653 14.88098145 90.13894653 C11.38098145 90.26394653 11.38098145 90.26394653 7.88098145 90.13894653 C6.88098145 89.13894653 6.88098145 89.13894653 6.81848145 86.07644653 C6.83910645 85.10707153 6.85973145 84.13769653 6.88098145 83.13894653 C4.90098145 83.13894653 2.92098145 83.13894653 0.88098145 83.13894653 C-0.11901855 78.26394653 -0.11901855 78.26394653 -0.11901855 77.13894653 C-2.09901855 76.80894653 -4.07901855 76.47894653 -6.11901855 76.13894653 C-6.11901855 74.15894653 -6.11901855 72.17894653 -6.11901855 70.13894653 C-7.08839355 70.15957153 -8.05776855 70.18019653 -9.05651855 70.20144653 C-12.11901855 70.13894653 -12.11901855 70.13894653 -13.11901855 69.13894653 C-13.15982638 67.1393629 -13.16156212 65.13849399 -13.11901855 63.13894653 C-14.08839355 63.15957153 -15.05776855 63.18019653 -16.05651855 63.20144653 C-19.11901855 63.13894653 -19.11901855 63.13894653 -20.11901855 62.13894653 C-20.15982638 60.1393629 -20.16156212 58.13849399 -20.11901855 56.13894653 C-21.08839355 56.15957153 -22.05776855 56.18019653 -23.05651855 56.20144653 C-26.11901855 56.13894653 -26.11901855 56.13894653 -27.11901855 55.13894653 C-27.21782652 53.66241989 -27.24981101 52.18127418 -27.25183105 50.70144653 C-27.25312012 49.80683716 -27.25440918 48.91222778 -27.2557373 47.99050903 C-27.24993652 46.5789856 -27.24993652 46.5789856 -27.24401855 45.13894653 C-27.24788574 44.19793091 -27.25175293 43.25691528 -27.2557373 42.28738403 C-27.25444824 41.39277466 -27.25315918 40.49816528 -27.25183105 39.57644653 C-27.25013916 38.33701294 -27.25013916 38.33701294 -27.24841309 37.07254028 C-27.11901855 35.13894653 -27.11901855 35.13894653 -26.11901855 34.13894653 C-24.63029996 34.05225221 -23.13757356 34.0319116 -21.6463623 34.04129028 C-20.74724121 34.04451294 -19.84812012 34.0477356 -18.92175293 34.05105591 C-17.50346191 34.06362427 -17.50346191 34.06362427 -16.05651855 34.07644653 C-15.10712402 34.08095825 -14.15772949 34.08546997 -13.17956543 34.09011841 C-10.8259879 34.10194543 -8.47253378 34.11842628 -6.11901855 34.13894653 C-6.12687378 32.6472998 -6.12687378 32.6472998 -6.1348877 31.1255188 C-6.15293897 27.44860732 -6.16445102 23.77169979 -6.1739502 20.09475708 C-6.17899013 18.50100039 -6.18582205 16.90724834 -6.19445801 15.31350708 C-6.20653854 13.02744401 -6.21225011 10.74144186 -6.2166748 8.45535278 C-6.22183609 7.73867935 -6.22699738 7.02200592 -6.23231506 6.28361511 C-6.23251118 4.56830981 -6.18093863 2.85313387 -6.11901855 1.13894653 C-4.41408974 -0.56598228 -2.27367595 0.01090233 0 0 Z M15.88098145 9.13894653 C15.88098145 19.69894653 15.88098145 30.25894653 15.88098145 41.13894653 C17.53098145 41.13894653 19.18098145 41.13894653 20.88098145 41.13894653 C20.88098145 30.57894653 20.88098145 20.01894653 20.88098145 9.13894653 C19.23098145 9.13894653 17.58098145 9.13894653 15.88098145 9.13894653 Z M35.88098145 43.13894653 C35.88098145 46.76894653 35.88098145 50.39894653 35.88098145 54.13894653 C37.53098145 54.13894653 39.18098145 54.13894653 40.88098145 54.13894653 C40.88098145 50.17894653 40.88098145 46.21894653 40.88098145 42.13894653 C39.18130827 42.13894653 37.52990663 42.72671524 35.88098145 43.13894653 Z M28.88098145 56.13894653 C28.88098145 57.78894653 28.88098145 59.43894653 28.88098145 61.13894653 C30.53098145 61.13894653 32.18098145 61.13894653 33.88098145 61.13894653 C33.88098145 59.48894653 33.88098145 57.83894653 33.88098145 56.13894653 C32.23098145 56.13894653 30.58098145 56.13894653 28.88098145 56.13894653 Z M22.88098145 63.13894653 C22.55098145 64.78894653 22.22098145 66.43894653 21.88098145 68.13894653 C23.86098145 68.13894653 25.84098145 68.13894653 27.88098145 68.13894653 C27.88098145 66.48894653 27.88098145 64.83894653 27.88098145 63.13894653 C26.23098145 63.13894653 24.58098145 63.13894653 22.88098145 63.13894653 Z M15.88098145 70.13894653 C15.88098145 71.78894653 15.88098145 73.43894653 15.88098145 75.13894653 C17.53098145 75.13894653 19.18098145 75.13894653 20.88098145 75.13894653 C20.88098145 73.48894653 20.88098145 71.83894653 20.88098145 70.13894653 C19.23098145 70.13894653 17.58098145 70.13894653 15.88098145 70.13894653 Z M8.88098145 76.13894653 C8.88098145 78.11894653 8.88098145 80.09894653 8.88098145 82.13894653 C10.53098145 82.13894653 12.18098145 82.13894653 13.88098145 82.13894653 C13.88098145 80.15894653 13.88098145 78.17894653 13.88098145 76.13894653 C12.23098145 76.13894653 10.58098145 76.13894653 8.88098145 76.13894653 Z " fill="#03090E" transform="translate(39.1190185546875,4.861053466796875)"/>
<path d="M0 0 C4.62 0 9.24 0 14 0 C14 10.89 14 21.78 14 33 C20.6 33.33 27.2 33.66 34 34 C34 38.62 34 43.24 34 48 C31.69 48 29.38 48 27 48 C27 50.31 27 52.62 27 55 C24.03 55.495 24.03 55.495 21 56 C20.34 57.98 19.68 59.96 19 62 C17.35 62 15.7 62 14 62 C14 63.98 14 65.96 14 68 C11.68756208 68.02685412 9.3750373 68.04632841 7.0625 68.0625 C5.77472656 68.07410156 4.48695312 68.08570312 3.16015625 68.09765625 C0 68 0 68 -1 67 C-1.04080783 65.00041636 -1.04254356 62.99954746 -1 61 C-2.98 61 -4.96 61 -7 61 C-7 58.69 -7 56.38 -7 54 C-9.31 54 -11.62 54 -14 54 C-14 51.69 -14 49.38 -14 47 C-16.31 47 -18.62 47 -21 47 C-21 42.71 -21 38.42 -21 34 C-11.1 33.505 -11.1 33.505 -1 33 C-0.67 22.11 -0.34 11.22 0 0 Z " fill="#05A5CC" transform="translate(41,13)"/>
<path d="M0 0 C3.47914941 -0.02887814 6.95826831 -0.04675687 10.4375 -0.0625 C11.92733398 -0.07506836 11.92733398 -0.07506836 13.44726562 -0.08789062 C14.39150391 -0.09111328 15.33574219 -0.09433594 16.30859375 -0.09765625 C17.62041626 -0.10551147 17.62041626 -0.10551147 18.95874023 -0.11352539 C21 0 21 0 22 1 C22.09880797 2.47652664 22.13079245 3.95767236 22.1328125 5.4375 C22.13410156 6.33210938 22.13539062 7.22671875 22.13671875 8.1484375 C22.13285156 9.08945312 22.12898438 10.03046875 22.125 11 C22.12886719 11.94101562 22.13273437 12.88203125 22.13671875 13.8515625 C22.13542969 14.74617188 22.13414063 15.64078125 22.1328125 16.5625 C22.13168457 17.38878906 22.13055664 18.21507813 22.12939453 19.06640625 C22 21 22 21 21 22 C19.00041636 22.04080783 16.99954746 22.04254356 15 22 C15.020625 22.969375 15.04125 23.93875 15.0625 24.9375 C15 28 15 28 14 29 C12.00041636 29.04080783 9.99954746 29.04254356 8 29 C8.020625 29.969375 8.04125 30.93875 8.0625 31.9375 C8 35 8 35 7 36 C5.00041636 36.04080783 2.99954746 36.04254356 1 36 C1 37.98 1 39.96 1 42 C-1.97 42.495 -1.97 42.495 -5 43 C-4.979375 43.804375 -4.95875 44.60875 -4.9375 45.4375 C-5 48 -5 48 -6 49 C-7.99958364 49.04080783 -10.00045254 49.04254356 -12 49 C-11.979375 49.969375 -11.95875 50.93875 -11.9375 51.9375 C-12 55 -12 55 -13 56 C-16.5 56.125 -16.5 56.125 -20 56 C-21 55 -21 55 -21.0625 51.9375 C-21.041875 50.968125 -21.02125 49.99875 -21 49 C-22.98 49 -24.96 49 -27 49 C-28 44.125 -28 44.125 -28 43 C-29.98 42.67 -31.96 42.34 -34 42 C-34 40.02 -34 38.04 -34 36 C-34.969375 36.020625 -35.93875 36.04125 -36.9375 36.0625 C-40 36 -40 36 -41 35 C-41.04080783 33.00041636 -41.04254356 30.99954746 -41 29 C-41.969375 29.020625 -42.93875 29.04125 -43.9375 29.0625 C-47 29 -47 29 -48 28 C-48.04080783 26.00041636 -48.04254356 23.99954746 -48 22 C-49.98 22 -51.96 22 -54 22 C-54 20.35 -54 18.7 -54 17 C-53.67 17.99 -53.34 18.98 -53 20 C-51.35 20 -49.7 20 -48 20 C-48 16.04 -48 12.08 -48 8 C-47.67 8 -47.34 8 -47 8 C-47 12.29 -47 16.58 -47 21 C-44.69 21 -42.38 21 -40 21 C-40 23.31 -40 25.62 -40 28 C-37.69 28 -35.38 28 -33 28 C-33 30.31 -33 32.62 -33 35 C-31.02 35 -29.04 35 -27 35 C-26.67 36.98 -26.34 38.96 -26 41 C-23.69 41.33 -21.38 41.66 -19 42 C-19 43.98 -19 45.96 -19 48 C-17.35 48 -15.7 48 -14 48 C-14 46.02 -14 44.04 -14 42 C-11.69 41.67 -9.38 41.34 -7 41 C-7.020625 40.030625 -7.04125 39.06125 -7.0625 38.0625 C-7 35 -7 35 -6 34 C-4.00041636 33.95919217 -1.99954746 33.95745644 0 34 C0.33 31.69 0.66 29.38 1 27 C2.65 27 4.3 27 6 27 C6 25.35 6 23.7 6 22 C6.66 22 7.32 22 8 22 C8 21.34 8 20.68 8 20 C9.65 20 11.3 20 13 20 C13 17.03 13 14.06 13 11 C13.99 11.495 13.99 11.495 15 12 C15 14.31 15 16.62 15 19 C16.65 19.33 18.3 19.66 20 20 C20 14.06 20 8.12 20 2 C13.4 2 6.8 2 0 2 C0 1.34 0 0.68 0 0 Z " fill="#141D25" transform="translate(67,39)"/>
<path d="M0 0 C0.99 0 1.98 0 3 0 C3 4.29 3 8.58 3 13 C-6.405 13.495 -6.405 13.495 -16 14 C-16.33 17.96 -16.66 21.92 -17 26 C-18.65 26 -20.3 26 -22 26 C-22.66 26.33 -23.32 26.66 -24 27 C-24 21.72 -24 16.44 -24 11 C-23.34 11 -22.68 11 -22 11 C-22 10.01 -22 9.02 -22 8 C-15.4 7.67 -8.8 7.34 -2 7 C-1.34 4.69 -0.68 2.38 0 0 Z " fill="#010104" transform="translate(36,33)"/>
<path d="M0 0 C2.31 0 4.62 0 7 0 C6.88204075 4.68157901 6.75781451 9.36293288 6.62768555 14.04418945 C6.58427854 15.637893 6.54260781 17.2316448 6.50268555 18.82543945 C6.44512193 21.11163908 6.38138851 23.39759449 6.31640625 25.68359375 C6.29969376 26.40026718 6.28298126 27.11694061 6.26576233 27.85533142 C6.11387171 32.88612829 6.11387171 32.88612829 5 34 C3.02 34 1.04 34 -1 34 C-0.67 22.78 -0.34 11.56 0 0 Z " fill="#077AC7" transform="translate(41,13)"/>
<path d="M0 0 C1.65 0 3.3 0 5 0 C5 10.56 5 21.12 5 32 C4.67 32 4.34 32 4 32 C4 28.7 4 25.4 4 22 C2.68 22 1.36 22 0 22 C0 14.74 0 7.48 0 0 Z " fill="#04A6CC" transform="translate(48,14)"/>
<path d="M0 0 C6.6 0 13.2 0 20 0 C20 0.33 20 0.66 20 1 C15.71 1 11.42 1 7 1 C7 4.96 7 8.92 7 13 C4.69 13 2.38 13 0 13 C0 8.71 0 4.42 0 0 Z " fill="#0A7BBD" transform="translate(20,47)"/>
<path d="M0 0 C0.66 0 1.32 0 2 0 C2 4.62 2 9.24 2 14 C-0.31 14 -2.62 14 -5 14 C-5 16.31 -5 18.62 -5 21 C-6.98 21.33 -8.96 21.66 -11 22 C-11.66 23.98 -12.32 25.96 -13 28 C-14.65 28 -16.3 28 -18 28 C-18 29.98 -18 31.96 -18 34 C-20.97 34 -23.94 34 -27 34 C-27 33.67 -27 33.34 -27 33 C-24.69 33 -22.38 33 -20 33 C-20 31.02 -20 29.04 -20 27 C-18.02 27 -16.04 27 -14 27 C-13.34 24.36 -12.68 21.72 -12 19 C-10.02 19 -8.04 19 -6 19 C-6 16.69 -6 14.38 -6 12 C-4.02 12 -2.04 12 0 12 C0 8.04 0 4.08 0 0 Z " fill="#3C9EB6" transform="translate(73,47)"/>
<path d="M0 0 C0.66 0 1.32 0 2 0 C2 1.65 2 3.3 2 5 C2.66 5.33 3.32 5.66 4 6 C3.34 6 2.68 6 2 6 C2.020625 7.134375 2.04125 8.26875 2.0625 9.4375 C2 13 2 13 1 14 C-2.5 14.125 -2.5 14.125 -6 14 C-7 13 -7 13 -7.125 10 C-7 7 -7 7 -6 6 C-4.00041636 5.95919217 -1.99954746 5.95745644 0 6 C0 4.02 0 2.04 0 0 Z " fill="#2C2F2F" transform="translate(53,81)"/>
<path d="M0 0 C0.66 0.33 1.32 0.66 2 1 C1.67 11.23 1.34 21.46 1 32 C-1.475 32.495 -1.475 32.495 -4 33 C-3.67 29.04 -3.34 25.08 -3 21 C-2.01 20.67 -1.02 20.34 0 20 C0 13.4 0 6.8 0 0 Z " fill="#0082CF" transform="translate(46,14)"/>
<path d="M0 0 C1.65 0 3.3 0 5 0 C5.07430494 4.19918185 5.12867413 8.39801274 5.16479492 12.59765625 C5.17985681 14.02545846 5.20031062 15.4532146 5.22631836 16.88085938 C5.26281842 18.93631373 5.27975166 20.99115505 5.29296875 23.046875 C5.3086792 24.28276367 5.32438965 25.51865234 5.34057617 26.79199219 C5 30 5 30 2 34 C2 23.44 2 12.88 2 2 C1.34 2 0.68 2 0 2 C0 1.34 0 0.68 0 0 Z " fill="#0A0F0E" transform="translate(58,12)"/>
<path d="M0 0 C0.33 1.32 0.66 2.64 1 4 C2.65 4 4.3 4 6 4 C6.33 3.34 6.66 2.68 7 2 C7 2.99 7 3.98 7 5 C9.97 5.495 9.97 5.495 13 6 C13.33 7.98 13.66 9.96 14 12 C11.6739143 12.38063221 9.33944736 12.71269945 7 13 C6 12 6 12 5.9375 8.9375 C5.958125 7.968125 5.97875 6.99875 6 6 C4.02 6 2.04 6 0 6 C0 4.02 0 2.04 0 0 Z " fill="#077DC3" transform="translate(34,68)"/>
<path d="M0 0 C2.31 0 4.62 0 7 0 C7.125 4.75 7.125 4.75 6 7 C4.33388095 7.042721 2.66617115 7.04063832 1 7 C0 6 0 6 -0.0625 2.9375 C-0.041875 1.968125 -0.02125 0.99875 0 0 Z " fill="#04070B" transform="translate(26,68)"/>
<path d="M0 0 C1.65 0 3.3 0 5 0 C5.66 1.98 6.32 3.96 7 6 C6 7 6 7 2.9375 7.0625 C1.4834375 7.0315625 1.4834375 7.0315625 0 7 C0 4.69 0 2.38 0 0 Z " fill="#09080B" transform="translate(55,81)"/>
<path d="M0 0 C2.97 0.495 2.97 0.495 6 1 C6.33 2.98 6.66 4.96 7 7 C4.69 7 2.38 7 0 7 C0 4.69 0 2.38 0 0 Z " fill="#0A78BC" transform="translate(27,60)"/>
<path d="M0 0 C0 2.31 0 4.62 0 7 C-1.65 7 -3.3 7 -5 7 C-5.66 5.02 -6.32 3.04 -7 1 C-1.125 0 -1.125 0 0 0 Z " fill="#060405" transform="translate(68,74)"/>
<path d="M0 0 C1.98 0 3.96 0 6 0 C6.042721 1.66611905 6.04063832 3.33382885 6 5 C5 6 5 6 2.4375 6.0625 C1.2309375 6.0315625 1.2309375 6.0315625 0 6 C0 4.02 0 2.04 0 0 Z " fill="#040406" transform="translate(33,75)"/>
<path d="M0 0 C1.77049689 -0.05410687 3.54146849 -0.09284119 5.3125 -0.125 C6.29863281 -0.14820313 7.28476562 -0.17140625 8.30078125 -0.1953125 C11 0 11 0 14 2 C9.71 2 5.42 2 1 2 C1 2.99 1 3.98 1 5 C0.34 5 -0.32 5 -1 5 C-0.67 3.35 -0.34 1.7 0 0 Z " fill="#0F0C0D" transform="translate(13,39)"/>
<path d="M0 0 C1.65 0 3.3 0 5 0 C5.125 4.75 5.125 4.75 4 7 C1 6 1 6 0 5 C-0.04063832 3.33382885 -0.042721 1.66611905 0 0 Z " fill="#010202" transform="translate(68,68)"/>
<path d="M0 0 C2.97 0.495 2.97 0.495 6 1 C6 1.99 6 2.98 6 4 C4.68 4 3.36 4 2 4 C2 4.66 2 5.32 2 6 C1.01 5.67 0.02 5.34 -1 5 C-0.67 3.35 -0.34 1.7 0 0 Z " fill="#080609" transform="translate(40,82)"/>
<path d="M0 0 C1.98 0 3.96 0 6 0 C6 1.65 6 3.3 6 5 C4.35 5 2.7 5 1 5 C0.67 3.35 0.34 1.7 0 0 Z " fill="#0182CF" transform="translate(34,67)"/>
<path d="M0 0 C1.65 0 3.3 0 5 0 C5 1.65 5 3.3 5 5 C3.35 5 1.7 5 0 5 C0 3.35 0 1.7 0 0 Z " fill="#030104" transform="translate(48,88)"/>
<path d="M0 0 C1.65 0 3.3 0 5 0 C5 1.65 5 3.3 5 5 C3.35 5 1.7 5 0 5 C0 3.35 0 1.7 0 0 Z " fill="#01040B" transform="translate(21,61)"/>
<path d="M0 0 C1.65 0 3.3 0 5 0 C5 1.65 5 3.3 5 5 C3.35 5 1.7 5 0 5 C0 3.35 0 1.7 0 0 Z " fill="#020203" transform="translate(75,61)"/>
<path d="M0 0 C0.66 0 1.32 0 2 0 C2 1.32 2 2.64 2 4 C3.32 4.33 4.64 4.66 6 5 C6 5.66 6 6.32 6 7 C4.33388095 7.042721 2.66617115 7.04063832 1 7 C0 6 0 6 -0.0625 2.9375 C-0.041875 1.968125 -0.02125 0.99875 0 0 Z " fill="#0D649D" transform="translate(40,74)"/>
<path d="M0 0 C2.475 0.495 2.475 0.495 5 1 C5 3.31 5 5.62 5 8 C4.01 8.495 4.01 8.495 3 9 C3 6.69 3 4.38 3 2 C2.01 1.67 1.02 1.34 0 1 C0 0.67 0 0.34 0 0 Z " fill="#0C0C0C" transform="translate(84,39)"/>
<path d="M0 0 C0.33 0 0.66 0 1 0 C1.04254356 1.99954746 1.04080783 4.00041636 1 6 C0 7 0 7 -2.5625 7.0625 C-3.7690625 7.0315625 -3.7690625 7.0315625 -5 7 C-5 6.34 -5 5.68 -5 5 C-3.68 5 -2.36 5 -1 5 C-0.67 3.35 -0.34 1.7 0 0 Z " fill="#1C2022" transform="translate(47,81)"/>
</svg>
